HIERARCHY
ROOT hip
{
	OFFSET 0.000000 0.000000 0.000000 
	CHANNELS 6 Xposition Yposition Zposition Xrotation Zrotation Yrotation
	JOINT abdomen
	{
		OFFSET 0.000000 3.402643 0.000000 
		CHANNELS 3 Xrotation Zrotation Yrotation
		JOINT chest
		{
			OFFSET 0.000000 8.438565 -0.680529 
			CHANNELS 3 Xrotation Zrotation Yrotation
			JOINT neck
			{
				OFFSET 0.000000 10.207942 -0.272212 
				CHANNELS 3 Xrotation Zrotation Yrotation
				JOINT head
				{
					OFFSET 0.000000 3.130431 0.000000 
					CHANNELS 3 Xrotation Zrotation Yrotation
					End Site
					{
						OFFSET 0.000000 3.130435 0.000000 
					}
				}
			}
			JOINT lCollar
			{
				OFFSET 3.470700 6.669187 -0.816635 
				CHANNELS 3 Yrotation Zrotation Xrotation
				JOINT lShldr
				{
					OFFSET 3.198488 0.000000 0.000000 
					CHANNELS 3 Zrotation Yrotation Xrotation
					JOINT lForeArm
					{
						OFFSET 10.139888 0.000000 0.000000 
						CHANNELS 3 Yrotation Zrotation Xrotation
						JOINT lHand
						{
							OFFSET 8.370511 0.000000 0.000000 
							CHANNELS 3 Zrotation Yrotation Xrotation
							End Site
							{
								OFFSET 4.083176 0.000000 0.000000 
							}
						}
					}
				}
			}
			JOINT rCollar
			{
				OFFSET -3.470700 6.669187 -0.816635 
				CHANNELS 3 Yrotation Zrotation Xrotation
				JOINT rShldr
				{
					OFFSET -3.198488 0.000000 0.000000 
					CHANNELS 3 Zrotation Yrotation Xrotation
					JOINT rForeArm
					{
						OFFSET -10.139888 0.000000 0.000000 
						CHANNELS 3 Yrotation Zrotation Xrotation
						JOINT rHand
						{
							OFFSET -8.370511 0.000000 0.000000 
							CHANNELS 3 Zrotation Yrotation Xrotation
							End Site
							{
								OFFSET -4.083176 0.000000 0.000000 
							}
						}
					}
				}
			}
		}
	}
	JOINT lThigh
	{
		OFFSET 5.308129 -1.633274 1.361059 
		CHANNELS 3 Xrotation Zrotation Yrotation
		JOINT lShin
		{
			OFFSET -2.041588 -20.007561 0.000000 
			CHANNELS 3 Xrotation Zrotation Yrotation
			JOINT lFoot
			{
				OFFSET 0.000000 -19.190928 -1.224953 
				CHANNELS 3 Xrotation Yrotation Zrotation
				End Site
				{
					OFFSET 0.000000 -2.449906 4.627600 
				}
			}
		}
	}
	JOINT rThigh
	{
		OFFSET -5.308129 -1.633274 1.361059 
		CHANNELS 3 Xrotation Zrotation Yrotation
		JOINT rShin
		{
			OFFSET 2.041588 -20.007561 0.000000 
			CHANNELS 3 Xrotation Zrotation Yrotation
			JOINT rFoot
			{
				OFFSET 0.000000 -19.190928 -1.224953 
				CHANNELS 3 Xrotation Yrotation Zrotation
				End Site
				{
					OFFSET 0.000000 -2.449906 4.627600 
				}
			}
		}
	}
}
MOTION
Frames: 8
Frame Time: 0.033333
-2.614673 51.160881 -0.584614 0.018653 1.318228 0.810782 0.000000 0.000000 0.000000 2.274467 -0.146481 0.361327 7.402556 0.019530 0.625003 28.125280 0.126953 0.126974 -1.179574 -5.616374 2.629748 -56.478828 2.784388 -28.463503 -38.904373 0.912524 30.420956 -9.089760 4.769532 -3.617187 1.404243 11.686143 2.620860 36.642284 -12.134946 -25.152855 27.369501 2.418582 27.051208 -7.435239 5.296855 -3.942897 3.639435 15.852180 10.483521 1.848830 -0.524378 4.190270 7.000958 -1.060267 -17.153372 5.761002 -9.911495 -9.919486 1.434781 3.619867 -6.905125 -4.925509 -0.288398 6.415996 
-3.075802 51.142513 -0.675000 0.142745 1.502906 2.090661 0.000000 0.000000 0.000000 2.763605 0.048828 -0.078125 7.987831 -0.048826 0.527344 27.943703 1.132805 0.214995 -1.801868 -5.435845 3.068891 -61.523960 4.976898 -22.843964 -38.131237 -0.680843 27.586466 -5.443377 4.758530 -3.579378 0.980290 12.852071 3.062510 41.697311 -13.150831 -23.782471 28.825407 2.613293 27.313568 -6.785914 3.830193 -3.828536 2.498697 15.728935 9.029283 1.561089 0.652286 3.739799 10.835593 -1.675139 -18.149733 5.819460 -9.657100 -10.068106 1.581260 3.942061 -7.598062 -5.268582 -0.290275 5.784121 
-3.413574 51.111069 -0.717170 0.079772 1.666967 3.409883 0.000000 0.000000 0.000000 3.393822 0.458961 -0.576153 8.408540 0.068359 0.283215 27.818043 1.083970 0.293101 -2.055834 -5.659615 3.657696 -66.284111 7.127686 -19.061480 -38.311890 -1.899591 24.105003 -6.305427 5.794679 -3.666549 0.510058 14.140704 3.632780 46.203403 -14.519360 -22.452534 31.905989 2.673685 28.419863 -5.430491 3.301193 -3.730252 -3.164068 15.836900 6.185190 10.167135 2.029735 3.633334 11.296862 -1.931954 -19.417717 5.375795 -9.621625 -10.254062 3.230867 4.251685 -8.097327 -6.371274 -0.314208 5.418915 
-3.761881 51.114250 -0.745532 0.195913 2.046812 3.567060 0.000000 0.000000 0.000000 3.906160 0.527344 -0.009765 8.799680 0.078120 0.625013 27.961401 1.181638 0.117364 -1.701404 -5.898175 4.111017 -70.743301 9.703196 -16.584126 -39.426975 -2.639301 22.281113 -9.947618 7.602345 -3.928499 0.844226 15.242527 4.116032 50.093456 -15.830570 -20.801979 33.708233 3.013078 28.022884 -6.229598 0.721665 -3.663633 -9.039916 15.579700 4.353581 19.143240 2.740035 5.931704 12.442453 -2.072380 -19.064068 4.253892 -9.641870 -9.978161 4.975955 4.094387 -8.436727 -7.216696 -0.355058 5.189015 
-3.900236 51.168827 -0.683726 0.018377 2.748368 3.637057 0.000000 0.000000 0.000000 4.546534 0.498016 0.634827 9.396936 0.165998 0.830103 28.051746 1.025379 -0.273394 -0.949627 -5.858733 4.701133 -74.230621 12.610252 -13.688350 -40.439499 -3.867277 18.853207 -13.578238 10.006017 -4.394382 1.111277 15.843321 4.746460 53.997082 -16.973600 -20.131903 34.795212 2.848666 28.991049 -6.127553 0.031118 -3.647133 -12.597758 14.472710 3.482927 24.524519 3.083814 11.313983 15.843857 -2.569483 -18.593618 4.742493 -10.171016 -10.471530 4.878397 4.114103 -7.994779 -7.400046 -0.346366 5.035015 
-3.936858 51.172707 -0.598976 0.288954 3.383274 3.238308 0.000000 0.000000 0.000000 4.764362 0.380764 1.279334 9.920686 -0.048814 1.396484 27.355059 1.269505 -0.371003 -0.131473 -6.136951 4.901366 -77.245926 16.178614 -12.006248 -41.447220 -4.445323 19.335188 -14.745627 11.570160 -4.684607 1.558811 16.750500 4.949139 56.441067 -17.901243 -19.258373 36.193253 3.098820 28.131935 -6.154293 -1.088049 -3.605098 -16.034492 13.378300 3.566508 28.966522 2.959259 17.522696 17.477922 -2.453381 -15.663733 3.989749 -10.909838 -10.709528 6.023674 4.059449 -7.081998 -8.062934 -0.356540 5.082568 
-3.977338 51.143764 -0.357930 0.088270 3.305862 3.052500 0.000000 0.000000 0.000000 5.173954 0.527046 1.923927 10.333349 0.351388 1.806727 27.259598 1.494057 -0.605518 0.240823 -5.077384 5.255306 -80.714066 19.397205 -12.220763 -41.655174 -4.450321 19.352097 -15.387392 12.758666 -4.911411 1.688118 17.744143 5.384549 58.612286 -18.800983 -18.253233 37.230106 3.322482 27.699818 -6.861097 -2.115607 -3.570312 -18.031277 13.090929 4.112128 31.069799 2.509463 20.879295 16.616631 -1.691257 -11.480201 4.410439 -10.756641 -10.626350 6.188456 4.029170 -6.651381 -8.506012 -0.384971 5.054024 
-3.963809 51.122112 -0.142405 0.776113 3.353427 3.414356 0.000000 0.000000 0.000000 4.985599 0.488054 1.748150 10.426476 0.214744 1.748071 26.702269 1.757735 -0.537156 0.175837 -4.945302 5.097932 -82.661049 22.791008 -12.220052 -41.975479 -4.566311 21.023645 -14.035824 12.510638 -4.762282 1.558573 17.595829 5.206380 60.662167 -19.021639 -16.773417 38.027260 3.668508 27.842802 -6.874561 -2.665053 -3.542012 -19.762642 12.781101 4.457485 29.473850 1.549336 21.449827 15.828562 -1.052192 -7.540345 4.010338 -10.883125 -10.717075 6.362885 4.164578 -6.847496 -8.902814 -0.408747 5.080693 
